<svg xmlns="http://www.w3.org/2000/svg" viewBox="0 0 143.76 143.76">
  <defs>
    <style>
      .cls-1 {
        isolation: isolate;
      }

      .cls-2 {
        fill: #93f991;
      }

      .cls-3 {
        fill: #3987ab;
      }
    </style>
  </defs>
  <g id="Ellipse_1" data-name="Ellipse 1" class="cls-1">
    <g id="Ellipse_1-2" data-name="Ellipse 1">
      <circle class="cls-2" cx="71.88" cy="71.88" r="70.48" transform="translate(-29.77 71.88) rotate(-45)"/>
      <path d="M71.88,2.8A69.08,69.08,0,1,1,2.8,71.88,69.16,69.16,0,0,1,71.88,2.8m0-2.8a71.88,71.88,0,1,0,71.88,71.88A71.88,71.88,0,0,0,71.88,0Z"/>
    </g>
  </g>
  <g id="KH">
    <g>
      <path class="cls-3" d="M38.39,86a121.27,121.27,0,0,0,3.24,19.3L27.4,110.75A116.64,116.64,0,0,1,23.8,81q0-29.13,13.49-52.57,4.44,2.57,7.9,4.92A88.24,88.24,0,0,0,38.7,58.45c-.42,3.76-.68,7.48-.78,11.14q2.14-2.46,4.39-5.29A102.25,102.25,0,0,0,53,47.67a69.12,69.12,0,0,0,6.64-19.2l7.11,3a76.74,76.74,0,0,1-5.67,22.07,94.34,94.34,0,0,1-10.6,18.78c-.55.77-1.11,1.5-1.67,2.19a54.32,54.32,0,0,0,6.7,13.39q6.16,9,12,13.19l-8.42,9.67A69.08,69.08,0,0,1,47.33,94.33a59.61,59.61,0,0,1-5-12.19Q40.38,84.18,38.39,86Z"/>
      <path class="cls-3" d="M103.56,110.75A116.31,116.31,0,0,1,100,81.3c0-1.53,0-3.06.11-4.6a52,52,0,0,0-12.45,2.77,126.88,126.88,0,0,0,3.71,25.79l-14.23,5.49A114.74,114.74,0,0,1,73.48,81.3q0-29.23,13.45-52.83,4.5,2.57,7.9,4.92a90.63,90.63,0,0,0-6.49,25.06q-.68,6.33-.84,12.45a59,59,0,0,1,11.3-1.16l1.67.06a102.94,102.94,0,0,1,12.92-41.33q4.5,2.57,7.9,4.92a90.62,90.62,0,0,0-6.48,25.06A138.47,138.47,0,0,0,114,73.51a128.57,128.57,0,0,0,3.82,31.75Z"/>
    </g>
  </g>
</svg>
